# xmcd
#
# Track frame offsets:
#	150
#	11368
#	27817
#	42730
#	58183
#	76210
#	91690
#	101610
#	123995
#	140608
#	156213
#
# Disc length: 2662 seconds
#
# Revision: 5
# Processed by: cddbd v1.5.2PL0 Copyright (c) Steve Scherf et al.
# Submitted via: audiograbber 1.83.01
#
DISCID=850a640b
DTITLE=Nada Surf - The Weight Is A Gift
DYEAR=2005
DGENRE=Rock
TTITLE0=Concrete Bed
TTITLE1=Do It Again
TTITLE2=Always Love
TTITLE3=What Is Your Secret?
TTITLE4=Your Legs Grow
TTITLE5=All Is A Game
TTITLE6=Blankest Year
TTITLE7=Comes A Time
TTITLE8=In The Mirror
TTITLE9=Armies Walk
TTITLE10=Imaginary Friends
EXTD=
EXTT0=
EXTT1=
EXTT2=
EXTT3=
EXTT4=
EXTT5=
EXTT6=
EXTT7=
EXTT8=
EXTT9=
EXTT10=
PLAYORDER=
